<svg xmlns="http://www.w3.org/2000/svg" width="400" height="400" viewBox="0 0 400 400" fill="none">
  <rect width="400" height="400" fill="#f1f5f9"/>
  <path d="M200 140c-16.569 0-30 13.431-30 30v20h-10c-5.523 0-10 4.477-10 10v60c0 5.523 4.477 10 10 10h80c5.523 0 10-4.477 10-10v-60c0-5.523-4.477-10-10-10h-10v-20c0-16.569-13.431-30-30-30zm0 20c5.523 0 10 4.477 10 10v20h-20v-20c0-5.523 4.477-10 10-10z" fill="#94a3b8"/>
  <text x="200" y="310" text-anchor="middle" font-family="system-ui,sans-serif" font-size="14" font-weight="600" fill="#94a3b8">Sin imagen</text>
</svg>
